<svg xmlns="http://www.w3.org/2000/svg" viewBox="0 0 512 512" role="img" aria-labelledby="title desc">
  <title id="title">jacory source icon</title>
  <desc id="desc">A cool mint technology assistant wearing black sunglasses and holding a cigarette</desc>
  <rect width="512" height="512" rx="124" fill="#101a2f"/>
  <path d="M256 86v42" stroke="#f6c85f" stroke-width="18" stroke-linecap="round"/>
  <circle cx="256" cy="70" r="18" fill="#f6c85f"/>
  <path d="M145 178 104 138v94h41m222-54 41-40v94h-41" fill="#ff7b8b"/>
  <rect x="124" y="154" width="264" height="238" rx="74" fill="#8ce7d0"/>
  <rect x="151" y="205" width="210" height="112" rx="42" fill="#1c2940"/>
  <path d="M166 232h80l-8 54h-55c-11 0-20-8-22-19zm180 0h-80l8 54h55c11 0 20-8 22-19z" fill="#080d18"/>
  <path d="M244 244c8-7 16-7 24 0" fill="none" stroke="#080d18" stroke-width="14" stroke-linecap="round"/>
  <path d="m181 245 42-8m71 0 42 8" stroke="#60708a" stroke-width="9" stroke-linecap="round" opacity=".7"/>
  <circle cx="168" cy="337" r="18" fill="#ff7b8b"/>
  <circle cx="344" cy="337" r="18" fill="#ff7b8b"/>
  <path d="M224 339c16 7 36 7 52 0" fill="none" stroke="#101a2f" stroke-width="12" stroke-linecap="round"/>
  <path d="m276 343 82 30" stroke="#f5f1df" stroke-width="16" stroke-linecap="round"/>
  <path d="m351 370 18 7" stroke="#ff7b55" stroke-width="18" stroke-linecap="round"/>
  <path d="M374 362c25-11 5-26 24-37 17-10 7-25 18-34" fill="none" stroke="#b9c5d5" stroke-width="9" stroke-linecap="round" opacity=".75"/>
  <path d="M390 170h34" stroke="#f6f8f6" stroke-width="10" stroke-linecap="round" opacity=".8"/>
  <path d="M407 153v34" stroke="#f6f8f6" stroke-width="10" stroke-linecap="round" opacity=".8"/>
</svg>
